HIERARCHY
ROOT Hips
{
	OFFSET 0.000000 97.167313 0.000000
	CHANNELS 6 Xposition Yposition Zposition Xrotation Yrotation Zrotation
	JOINT Spine
	{
		OFFSET 0.000000 13.784798 0.064400
		CHANNELS 3 Xrotation Yrotation Zrotation
		JOINT Spine1
		{
			OFFSET 0.000000 12.037903 0.404700
			CHANNELS 3 Xrotation Yrotation Zrotation
			JOINT Spine2
			{
				OFFSET 0.000000 17.795601 0.420200
				CHANNELS 3 Xrotation Yrotation Zrotation
				JOINT Neck
				{
					OFFSET 0.000000 39.131302 11.954600
					CHANNELS 3 Xrotation Yrotation Zrotation
					JOINT Head
					{
						OFFSET 0.000000 14.456192 15.627699
						CHANNELS 3 Xrotation Yrotation Zrotation
						JOINT HeadTop_End
						{
							OFFSET 0.000000 15.703506 7.603401
							CHANNELS 3 Xrotation Yrotation Zrotation
							End Site
							{
								OFFSET 0.000000 17.447403 0.000000
							}
						}
					}
				}
				JOINT LeftShoulder
				{
					OFFSET 17.399500 24.608795 1.168800
					CHANNELS 3 Xrotation Yrotation Zrotation
					JOINT LeftArm
					{
						OFFSET 18.980635 5.765305 1.818600
						CHANNELS 3 Xrotation Yrotation Zrotation
						JOINT LeftForeArm
						{
							OFFSET 49.290169 0.000000 0.000000
							CHANNELS 3 Xrotation Yrotation Zrotation
							JOINT LeftHand
							{
								OFFSET 31.562012 0.000000 0.000000
								CHANNELS 3 Xrotation Yrotation Zrotation
								JOINT LeftHandThumb1
								{
									OFFSET 6.133995 -4.388519 7.076070
									CHANNELS 3 Xrotation Yrotation Zrotation
									JOINT LeftHandThumb2
									{
										OFFSET 6.037666 -3.485840 3.485847
										CHANNELS 3 Xrotation Yrotation Zrotation
										JOINT LeftHandThumb3
										{
											OFFSET 6.496506 -3.750763 3.750761
											CHANNELS 3 Xrotation Yrotation Zrotation
											JOINT LeftHandThumb4
											{
												OFFSET 5.616882 -3.242905 3.242910
												CHANNELS 3 Xrotation Yrotation Zrotation
												End Site
												{
													OFFSET -1.254608 7.132141 0.375429
												}
											}
										}
									}
								}
								JOINT LeftHandPinky1
								{
									OFFSET 18.920792 -0.453171 -11.426712
									CHANNELS 3 Xrotation Yrotation Zrotation
									JOINT LeftHandPinky2
									{
										OFFSET 4.919586 0.000000 0.000000
										CHANNELS 3 Xrotation Yrotation Zrotation
										JOINT LeftHandPinky3
										{
											OFFSET 5.233047 0.000000 0.000000
											CHANNELS 3 Xrotation Yrotation Zrotation
											JOINT LeftHandPinky4
											{
												OFFSET 5.571716 0.000000 0.000000
												CHANNELS 3 Xrotation Yrotation Zrotation
												End Site
												{
													OFFSET -3.459808 4.342407 -0.466164
												}
											}
										}
									}
								}
								JOINT LeftHandRing1
								{
									OFFSET 22.726120 -0.094986 -6.500475
									CHANNELS 3 Xrotation Yrotation Zrotation
									JOINT LeftHandRing2
									{
										OFFSET 6.408615 0.000000 0.000000
										CHANNELS 3 Xrotation Yrotation Zrotation
										JOINT LeftHandRing3
										{
											OFFSET 6.150223 0.000000 0.000000
											CHANNELS 3 Xrotation Yrotation Zrotation
											JOINT LeftHandRing4
											{
												OFFSET 6.145386 0.000000 0.000000
												CHANNELS 3 Xrotation Yrotation Zrotation
												End Site
												{
													OFFSET -3.671402 4.923981 -0.202372
												}
											}
										}
									}
								}
								JOINT LeftHandMiddle1
								{
									OFFSET 23.373947 0.000000 0.000001
									CHANNELS 3 Xrotation Yrotation Zrotation
									JOINT LeftHandMiddle2
									{
										OFFSET 6.996567 0.000000 0.000000
										CHANNELS 3 Xrotation Yrotation Zrotation
										JOINT LeftHandMiddle3
										{
											OFFSET 7.015945 0.000000 0.000000
											CHANNELS 3 Xrotation Yrotation Zrotation
											JOINT LeftHandMiddle4
											{
												OFFSET 7.721573 0.000000 0.000000
												CHANNELS 3 Xrotation Yrotation Zrotation
												End Site
												{
													OFFSET -4.651108 6.158463 0.251582
												}
											}
										}
									}
								}
								JOINT LeftHandIndex1
								{
									OFFSET 21.310577 -0.490082 6.209344
									CHANNELS 3 Xrotation Yrotation Zrotation
									JOINT LeftHandIndex2
									{
										OFFSET 7.536453 0.000000 0.000000
										CHANNELS 3 Xrotation Yrotation Zrotation
										JOINT LeftHandIndex3
										{
											OFFSET 7.512344 0.000000 0.000000
											CHANNELS 3 Xrotation Yrotation Zrotation
											JOINT LeftHandIndex4
											{
												OFFSET 10.212402 0.000000 0.000001
												CHANNELS 3 Xrotation Yrotation Zrotation
												End Site
												{
													OFFSET -5.180801 8.690506 1.388433
												}
											}
										}
									}
								}
							}
						}
					}
				}
				JOINT RightShoulder
				{
					OFFSET -17.399500 24.608795 1.168800
					CHANNELS 3 Xrotation Yrotation Zrotation
					JOINT RightArm
					{
						OFFSET -18.980635 5.765305 1.818600
						CHANNELS 3 Xrotation Yrotation Zrotation
						JOINT RightForeArm
						{
							OFFSET -49.290169 0.000000 0.000000
							CHANNELS 3 Xrotation Yrotation Zrotation
							JOINT RightHand
							{
								OFFSET -31.562012 0.000000 0.000000
								CHANNELS 3 Xrotation Yrotation Zrotation
								JOINT RightHandThumb1
								{
									OFFSET -6.133995 -4.388519 7.076070
									CHANNELS 3 Xrotation Yrotation Zrotation
									JOINT RightHandThumb2
									{
										OFFSET -6.037666 -3.485840 3.485847
										CHANNELS 3 Xrotation Yrotation Zrotation
										JOINT RightHandThumb3
										{
											OFFSET -6.496506 -3.750763 3.750761
											CHANNELS 3 Xrotation Yrotation Zrotation
											JOINT RightHandThumb4
											{
												OFFSET -5.616882 -3.242905 3.242910
												CHANNELS 3 Xrotation Yrotation Zrotation
												End Site
												{
													OFFSET 1.254608 7.132141 0.375429
												}
											}
										}
									}
								}
								JOINT RightHandIndex1
								{
									OFFSET -21.310577 -0.490082 6.209344
									CHANNELS 3 Xrotation Yrotation Zrotation
									JOINT RightHandIndex2
									{
										OFFSET -7.536453 0.000000 0.000000
										CHANNELS 3 Xrotation Yrotation Zrotation
										JOINT RightHandIndex3
										{
											OFFSET -7.512344 0.000000 0.000000
											CHANNELS 3 Xrotation Yrotation Zrotation
											JOINT RightHandIndex4
											{
												OFFSET -10.212402 0.000000 0.000001
												CHANNELS 3 Xrotation Yrotation Zrotation
												End Site
												{
													OFFSET 5.180801 8.690506 1.388433
												}
											}
										}
									}
								}
								JOINT RightHandMiddle1
								{
									OFFSET -23.373947 0.000000 0.000001
									CHANNELS 3 Xrotation Yrotation Zrotation
									JOINT RightHandMiddle2
									{
										OFFSET -6.996567 0.000000 0.000000
										CHANNELS 3 Xrotation Yrotation Zrotation
										JOINT RightHandMiddle3
										{
											OFFSET -7.015945 0.000000 0.000000
											CHANNELS 3 Xrotation Yrotation Zrotation
											JOINT RightHandMiddle4
											{
												OFFSET -7.721573 0.000000 0.000000
												CHANNELS 3 Xrotation Yrotation Zrotation
												End Site
												{
													OFFSET 4.651108 6.158463 0.251582
												}
											}
										}
									}
								}
								JOINT RightHandRing1
								{
									OFFSET -22.726120 -0.094986 -6.500475
									CHANNELS 3 Xrotation Yrotation Zrotation
									JOINT RightHandRing2
									{
										OFFSET -6.408615 0.000000 0.000000
										CHANNELS 3 Xrotation Yrotation Zrotation
										JOINT RightHandRing3
										{
											OFFSET -6.150223 0.000000 0.000000
											CHANNELS 3 Xrotation Yrotation Zrotation
											JOINT RightHandRing4
											{
												OFFSET -6.145386 0.000000 0.000000
												CHANNELS 3 Xrotation Yrotation Zrotation
												End Site
												{
													OFFSET 3.671402 4.923981 -0.202372
												}
											}
										}
									}
								}
								JOINT RightHandPinky1
								{
									OFFSET -18.920792 -0.453171 -11.426712
									CHANNELS 3 Xrotation Yrotation Zrotation
									JOINT RightHandPinky2
									{
										OFFSET -4.919586 0.000000 0.000000
										CHANNELS 3 Xrotation Yrotation Zrotation
										JOINT RightHandPinky3
										{
											OFFSET -5.233047 0.000000 0.000000
											CHANNELS 3 Xrotation Yrotation Zrotation
											JOINT RightHandPinky4
											{
												OFFSET -5.571716 0.000000 0.000000
												CHANNELS 3 Xrotation Yrotation Zrotation
												End Site
												{
													OFFSET 3.459808 4.342407 -0.466164
												}
											}
										}
									}
								}
							}
						}
					}
				}
			}
		}
	}
	JOINT LeftUpLeg
	{
		OFFSET 19.899099 -7.885101 -3.429500
		CHANNELS 3 Xrotation Yrotation Zrotation
		JOINT LeftLeg
		{
			OFFSET 1.745560 -36.997807 10.304700
			CHANNELS 3 Xrotation Yrotation Zrotation
			JOINT LeftFoot
			{
				OFFSET -1.745558 -29.803308 -13.615400
				CHANNELS 3 Xrotation Yrotation Zrotation
				JOINT LeftToeBase
				{
					OFFSET 1.181900 -18.539904 15.226099
					CHANNELS 3 Xrotation Yrotation Zrotation
					JOINT LeftToe_End
					{
						OFFSET -0.863701 1.402801 16.534700
						CHANNELS 3 Xrotation Yrotation Zrotation
						End Site
						{
							OFFSET 0.000000 16.616566 0.000000
						}
					}
				}
			}
		}
	}
	JOINT RightUpLeg
	{
		OFFSET -19.899099 -7.885101 -3.429500
		CHANNELS 3 Xrotation Yrotation Zrotation
		JOINT RightLeg
		{
			OFFSET -1.745560 -36.997807 10.304700
			CHANNELS 3 Xrotation Yrotation Zrotation
			JOINT RightFoot
			{
				OFFSET 1.745558 -29.803308 -13.615400
				CHANNELS 3 Xrotation Yrotation Zrotation
				JOINT RightToeBase
				{
					OFFSET -1.181900 -18.539904 15.226099
					CHANNELS 3 Xrotation Yrotation Zrotation
					JOINT RightToe_End
					{
						OFFSET 0.863701 1.402801 16.534700
						CHANNELS 3 Xrotation Yrotation Zrotation
						End Site
						{
							OFFSET 0.000000 16.616566 0.000000
						}
					}
				}
			}
		}
	}
}
MOTION
Frames: 4
Frame Time: 0.033333
0.146172 62.682251 31.380821 47.357602 -12.558143 -6.468768 29.944529 0.546352 -7.208431 16.396697 -0.675411 3.560391 16.484593 3.123525 3.070663 -10.877661 11.781537 -0.157885 -22.879862 13.570999 -1.962727 0.000000 0.000000 -0.000000 17.665615 -24.468010 21.855533 -55.682410 -24.076724 -17.514270 68.313735 -10.887315 16.613194 -76.569303 -15.626078 29.776975 17.518240 -5.737873 -12.939905 10.834885 26.087045 8.642699 20.883985 51.116839 0.298064 -0.000003 0.000001 -0.000003 10.028180 13.722801 -84.740675 0.876596 0.061921 -64.602975 1.141206 1.253095 -55.016484 0.000000 0.000002 0.000001 8.644365 2.240156 -75.153063 -0.207682 1.009304 -57.854783 0.455035 1.750961 -53.581929 0.000001 -0.000001 0.000003 7.475946 1.145435 -63.776523 1.807091 1.477352 -64.568060 0.115940 -0.900067 -43.272698 0.000000 -0.000000 0.000001 13.982068 1.211621 -55.005972 0.487604 1.202165 -65.439810 1.988773 2.147205 -57.664398 0.000000 0.000001 -0.000001 9.348062 14.493776 21.630611 1.572516 7.882313 31.301913 -7.587249 40.485113 8.992806 -4.685971 -3.273371 0.694417 23.837968 3.413647 -17.307911 -0.353359 -33.599347 7.643309 -5.254828 -6.754951 1.828112 0.000000 -0.000000 0.000007 2.379580 -3.672422 19.357484 -2.169504 -2.462878 29.545926 -1.923307 -4.802213 25.049512 -0.000000 -0.000001 -0.000001 -1.989604 -5.695898 24.534497 0.258704 -5.091171 37.858554 -0.716060 -1.159039 24.859592 0.000001 0.000000 -0.000001 -4.168344 -9.163373 22.119411 4.068070 -4.067421 44.137283 2.108646 -3.177097 26.464828 -0.000001 -0.000002 -0.000007 -6.474004 -11.342498 34.130121 10.714154 -2.552938 45.694563 6.411036 -3.077439 26.182803 -0.000000 -0.000000 0.000006 -60.067142 -7.335027 30.408904 84.303959 -4.198115 -6.452315 -55.561885 0.479374 -11.922035 -11.971860 -3.287574 0.167255 -0.000000 -0.000000 -0.000000 -102.814762 -15.442969 11.743948 52.657757 1.410577 0.444560 4.194402 -0.050595 -6.021996 -0.015083 -0.496454 -0.017210 0.000000 -0.000000 -0.000000 
0.062205 63.513206 30.632259 44.590176 -12.402913 -6.310925 29.630617 0.468046 -6.751985 16.279648 -0.692127 3.519656 16.356763 3.028096 3.038159 -10.386483 11.325412 -0.270148 -22.995597 12.991052 -2.024806 -0.000002 0.000001 0.000000 15.630282 -25.228521 16.907015 -53.698438 -25.651137 -18.062601 68.451691 -12.018494 18.491412 -76.714499 -14.313561 26.736460 17.506094 -5.747224 -12.943963 10.829804 26.073714 8.642029 20.871234 51.116569 0.321516 -0.000001 -0.000001 -0.000002 10.032131 13.746991 -84.740224 0.876600 0.061935 -64.602948 1.141204 1.253094 -55.016470 -0.000000 0.000002 0.000001 8.667793 2.262208 -75.153965 -0.207677 1.009285 -57.854776 0.455031 1.750972 -53.581915 -0.000001 -0.000001 0.000003 7.475949 1.145429 -63.776516 1.807097 1.477358 -64.568066 0.115934 -0.900066 -43.272677 -0.000001 -0.000000 0.000001 13.988097 1.215600 -55.007068 0.487080 1.203753 -65.439790 1.995378 2.151455 -57.664521 0.000000 0.000002 -0.000004 8.979590 14.373518 21.478727 0.436902 7.925698 31.686241 -7.225669 40.258078 8.811057 -5.237567 -3.075461 -0.057970 24.810990 4.200285 -17.411426 -0.133836 -33.904953 7.683742 -5.098843 -7.074959 1.765042 0.000000 0.000001 -0.000002 2.379422 -3.672708 19.098326 -2.170458 -2.463170 29.286560 -1.923248 -4.802533 24.790450 -0.000000 -0.000001 -0.000001 -1.989629 -5.695738 24.275875 0.258845 -5.091312 37.598993 -0.716852 -1.159343 24.658117 -0.000001 -0.000000 -0.000007 -4.154045 -9.144139 21.867609 4.067445 -4.067580 43.880236 2.108113 -3.177746 26.204309 -0.000000 -0.000002 -0.000010 -6.473738 -11.342170 33.870642 10.714146 -2.553906 45.435474 6.410413 -3.076985 25.925002 -0.000001 -0.000004 0.000002 -57.262523 -6.481870 28.726413 82.261104 -3.113066 -6.326864 -57.668100 0.287086 -11.209168 -8.312455 -3.420043 0.159735 -0.000000 0.000000 -0.000000 -99.900976 -15.309239 12.045845 51.107587 1.574720 0.345815 5.753224 0.141241 -6.344167 -0.013001 -0.504495 -0.014582 0.000000 -0.000000 -0.000000 
-0.010027 64.320335 29.758652 41.557053 -12.172256 -5.923884 28.886007 0.504880 -6.540895 16.458135 -0.684552 3.667771 16.528604 3.019869 3.151298 -10.853255 11.160640 -0.660826 -22.233050 12.149068 -1.308326 -0.000000 -0.000001 0.000000 13.133701 -25.573914 11.561726 -52.656462 -27.676729 -19.548567 68.466124 -12.629019 19.554705 -76.355969 -13.720290 23.645307 17.493025 -5.757017 -12.948437 10.824297 26.059299 8.641291 20.857101 51.116244 0.347649 0.000002 0.000002 -0.000002 10.037134 13.772930 -84.739794 0.876603 0.061941 -64.602975 1.141206 1.253084 -55.016474 0.000003 -0.000001 -0.000002 8.692978 2.286086 -75.154976 -0.207682 1.009296 -57.854783 0.455032 1.750968 -53.581905 -0.000000 0.000002 0.000005 7.475968 1.145440 -63.776502 1.807083 1.477358 -64.568073 0.115934 -0.900065 -43.272684 0.000002 0.000002 0.000009 13.994767 1.220318 -55.008342 0.486946 1.205453 -65.439762 2.002654 2.156044 -57.664623 0.000000 0.000000 -0.000004 8.594770 14.099602 21.382515 -0.745671 7.946426 31.967181 -6.812590 40.002106 8.641981 -5.753374 -2.740441 -0.855545 25.776265 4.986144 -17.533792 0.082151 -34.201636 7.726442 -4.944504 -7.394924 1.701201 -0.000001 -0.000001 0.000001 2.379320 -3.672443 18.824153 -2.171417 -2.463390 29.012120 -1.924105 -4.802698 24.516993 -0.000000 -0.000001 0.000003 -1.989514 -5.695516 24.000539 0.258875 -5.091379 37.326028 -0.717638 -1.159389 24.440696 -0.000000 0.000002 -0.000004 -4.140085 -9.125022 21.601583 4.066817 -4.067780 43.605594 2.107559 -3.178134 25.932164 0.000002 -0.000000 -0.000003 -6.474230 -11.342178 33.596765 10.714001 -2.554254 45.160637 6.410066 -3.075930 25.651870 0.000002 0.000000 0.000004 -54.283762 -4.844913 26.926617 79.635894 -2.257762 -6.245907 -59.720749 -0.340388 -10.097641 -4.670761 -3.574117 -0.164658 0.000000 -0.000000 -0.000000 -96.987149 -14.867037 12.103720 49.684446 1.156213 0.217885 7.423130 0.987221 -6.583527 -0.010720 -0.509537 -0.011801 -0.000000 0.000000 -0.000000 
-0.035192 65.112976 28.787846 38.309807 -11.924111 -5.362092 27.753210 0.585822 -6.504888 16.891599 -0.666625 3.936496 16.959221 3.044945 3.366218 -11.517786 10.675088 -0.516655 -21.367012 11.521429 -1.145699 0.000003 -0.000001 -0.000000 11.214681 -25.420965 7.627639 -51.590563 -29.474578 -21.046603 68.753476 -13.103263 20.500915 -75.698263 -13.331954 21.882174 17.478852 -5.767781 -12.953276 10.818728 26.044778 8.640586 20.842088 51.115889 0.375583 0.000001 0.000001 0.000000 10.042629 13.800567 -84.739288 0.876598 0.061948 -64.602969 1.141219 1.253075 -55.016487 -0.000003 0.000004 -0.000005 8.720134 2.310998 -75.156103 -0.207667 1.009302 -57.854783 0.455042 1.750968 -53.581912 -0.000000 0.000000 0.000005 7.475961 1.145419 -63.776529 1.807083 1.477367 -64.568066 0.115941 -0.900072 -43.272691 0.000002 0.000000 0.000004 14.001935 1.225334 -55.009702 0.487389 1.207061 -65.439756 2.010372 2.160869 -57.664746 -0.000001 -0.000000 -0.000001 8.229121 13.641297 21.247878 -2.005892 8.114444 32.262477 -6.360380 39.732877 8.480775 -6.215318 -2.274824 -1.563210 26.721452 5.766163 -17.670345 0.295875 -34.498029 7.767905 -4.795554 -7.704360 1.640986 0.000001 -0.000001 0.000003 2.379288 -3.672102 18.536582 -2.172409 -2.463483 28.721294 -1.923821 -4.803015 24.226206 -0.000004 -0.000005 -0.000002 -1.989544 -5.695369 23.711912 0.258882 -5.091299 37.037169 -0.718404 -1.159415 24.209874 0.000002 0.000000 -0.000002 -4.125736 -9.106041 21.321979 4.066129 -4.068095 43.316889 2.107218 -3.178625 25.642622 0.000000 0.000001 -0.000003 -6.474270 -11.342119 33.308053 10.713994 -2.553916 44.871768 6.409714 -3.074582 25.363146 0.000001 -0.000002 0.000002 -51.182094 -2.997624 25.159866 76.979422 -1.605635 -6.196716 -60.997237 -1.091617 -9.046450 -1.601898 -3.708602 -0.242302 0.000000 0.000000 -0.000000 -94.023947 -14.301672 12.051217 48.321836 0.956872 0.105808 9.193929 1.667810 -6.873179 -0.008206 -0.511291 -0.009238 0.000000 -0.000000 0.000000 
